<svg xmlns="http://www.w3.org/2000/svg" height="48" viewBox="0 -960 960 960" width="48">
<g data-bx-workspace="master" xmlns="http://www.w3.org/2000/svg" xmlns:bx="https://boxy-svg.com" height="48" viewBox="0 -960 960 960" width="48"><defs></defs><path d="M 516.768 -283.097 L 502.002 -377.11 C 492.651 -380.591 482.807 -385.317 472.472 -391.285 C 462.135 -397.255 453.029 -403.473 445.154 -409.939 L 358.038 -369.647 L 289.378 -492.013 L 369.113 -550.957 C 368.128 -555.435 367.513 -560.532 367.267 -566.253 C 367.021 -571.973 366.898 -577.072 366.898 -581.548 C 366.898 -586.026 367.021 -591.124 367.267 -596.844 C 367.513 -602.564 368.128 -607.663 369.113 -612.141 L 289.378 -671.085 L 358.038 -793.449 L 445.154 -753.159 C 453.029 -759.624 462.135 -765.842 472.472 -771.811 C 482.807 -777.78 492.651 -782.257 502.002 -785.241 L 516.768 -880 L 652.61 -880 L 667.376 -785.988 C 676.727 -782.505 686.695 -777.905 697.276 -772.185 C 707.858 -766.464 716.841 -760.122 724.224 -753.159 L 811.34 -793.449 L 880 -671.085 L 800.266 -613.632 C 801.25 -608.658 801.866 -603.311 802.111 -597.591 C 802.358 -591.87 802.48 -586.523 802.48 -581.548 C 802.48 -576.574 802.358 -571.351 802.111 -565.879 C 801.866 -560.408 801.25 -555.185 800.266 -550.211 L 880 -492.013 L 811.34 -369.647 L 724.224 -409.939 C 716.349 -403.473 707.366 -397.131 697.276 -390.912 C 687.187 -384.695 677.221 -380.094 667.376 -377.11 L 652.61 -283.097 L 516.768 -283.097 Z M 584.689 -484.553 C 611.267 -484.553 633.908 -494.003 652.61 -512.905 C 671.314 -531.806 680.665 -554.688 680.665 -581.548 C 680.665 -608.409 671.314 -631.291 652.61 -650.192 C 633.908 -669.094 611.267 -678.545 584.689 -678.545 C 558.111 -678.545 535.47 -669.094 516.768 -650.192 C 498.065 -631.291 488.714 -608.409 488.714 -581.548 C 488.714 -554.688 498.065 -531.806 516.768 -512.905 C 535.47 -494.003 558.111 -484.553 584.689 -484.553 Z M 584.689 -529.32 C 570.416 -529.32 558.234 -534.418 548.144 -544.615 C 538.055 -554.812 533.01 -567.123 533.01 -581.548 C 533.01 -595.974 538.055 -608.285 548.144 -618.482 C 558.234 -628.679 570.416 -633.778 584.689 -633.778 C 598.962 -633.778 611.144 -628.679 621.234 -618.482 C 631.324 -608.285 636.369 -595.974 636.369 -581.548 C 636.369 -567.123 631.324 -554.812 621.234 -544.615 C 611.144 -534.418 598.962 -529.32 584.689 -529.32 Z M 584.689 -581.548 Z M 552.204 -327.865 L 617.174 -327.865 L 627.509 -411.432 C 643.751 -415.411 659.132 -421.629 673.651 -430.085 C 688.17 -438.541 701.337 -448.738 713.149 -460.676 L 791.407 -426.354 L 820.937 -480.074 L 751.539 -531.559 C 753.508 -540.014 755.108 -548.347 756.339 -556.554 C 757.569 -564.761 758.184 -573.092 758.184 -581.548 C 758.184 -590.006 757.692 -598.336 756.708 -606.544 C 755.724 -614.751 754.001 -623.083 751.539 -631.539 L 820.937 -683.022 L 791.407 -736.744 L 713.149 -702.421 C 701.83 -715.354 689.032 -726.174 674.759 -734.878 C 660.485 -743.583 644.735 -749.179 627.509 -751.666 L 617.174 -835.232 L 552.204 -835.232 L 541.869 -751.666 C 525.136 -748.185 509.508 -742.215 494.989 -733.759 C 480.469 -725.303 467.549 -714.857 456.229 -702.421 L 377.972 -736.744 L 348.441 -683.022 L 417.839 -631.539 C 415.87 -623.083 414.271 -614.751 413.039 -606.544 C 411.809 -598.336 411.194 -590.006 411.194 -581.548 C 411.194 -573.092 411.809 -564.761 413.039 -556.554 C 414.271 -548.347 415.87 -540.014 417.839 -531.559 L 348.441 -480.074 L 377.972 -426.354 L 456.229 -460.676 C 468.041 -448.738 481.207 -438.541 495.727 -430.085 C 510.247 -421.629 525.627 -415.411 541.869 -411.432 L 552.204 -327.865 Z" style=""></path><path d="M 192.304 -18.757 L 180.626 -86.716 C 173.231 -89.234 165.446 -92.649 157.273 -96.965 C 149.098 -101.28 141.896 -105.774 135.669 -110.449 L 66.774 -81.323 L 12.475 -169.779 L 75.532 -212.388 C 74.753 -215.626 74.266 -219.312 74.071 -223.447 C 73.877 -227.582 73.78 -231.267 73.78 -234.503 C 73.78 -237.74 73.877 -241.425 74.071 -245.56 C 74.266 -249.696 74.753 -253.381 75.532 -256.618 L 12.475 -299.229 L 66.774 -387.685 L 135.669 -358.559 C 141.896 -363.231 149.098 -367.728 157.273 -372.042 C 165.446 -376.357 173.231 -379.593 180.626 -381.751 L 192.304 -450.251 L 299.734 -450.251 L 311.411 -382.289 C 318.806 -379.774 326.688 -376.447 335.058 -372.312 C 343.426 -368.176 350.529 -363.591 356.368 -358.559 L 425.264 -387.685 L 479.563 -299.229 L 416.506 -257.695 C 417.284 -254.101 417.771 -250.235 417.964 -246.1 C 418.16 -241.964 418.258 -238.1 418.258 -234.503 C 418.258 -230.908 418.16 -227.132 417.964 -223.175 C 417.771 -219.221 417.284 -215.445 416.506 -211.85 L 479.563 -169.779 L 425.264 -81.323 L 356.368 -110.449 C 350.142 -105.774 343.036 -101.19 335.058 -96.695 C 327.078 -92.201 319.196 -88.874 311.411 -86.716 L 299.734 -18.757 L 192.304 -18.757 Z M 246.018 -164.385 C 267.038 -164.385 284.942 -171.218 299.734 -184.882 C 314.525 -198.545 321.919 -215.086 321.919 -234.503 C 321.919 -253.921 314.525 -270.461 299.734 -284.125 C 284.942 -297.79 267.038 -304.62 246.018 -304.62 C 224.999 -304.62 207.095 -297.79 192.304 -284.125 C 177.512 -270.461 170.117 -253.921 170.117 -234.503 C 170.117 -215.086 177.512 -198.545 192.304 -184.882 C 207.095 -171.218 224.999 -164.385 246.018 -164.385 Z M 246.018 -196.748 C 234.73 -196.748 225.098 -200.433 217.117 -207.804 C 209.138 -215.176 205.148 -224.075 205.148 -234.503 C 205.148 -244.93 209.138 -253.831 217.117 -261.203 C 225.098 -268.573 234.73 -272.26 246.018 -272.26 C 257.305 -272.26 266.94 -268.573 274.92 -261.203 C 282.899 -253.831 286.89 -244.93 286.89 -234.503 C 286.89 -224.075 282.899 -215.176 274.92 -207.804 C 266.94 -200.433 257.305 -196.748 246.018 -196.748 Z M 246.018 -234.503 Z M 220.328 -51.118 L 271.71 -51.118 L 279.882 -111.527 C 292.728 -114.403 304.891 -118.9 316.374 -125.012 C 327.857 -131.125 338.269 -138.497 347.61 -147.126 L 409.499 -122.314 L 432.855 -161.149 L 377.971 -198.365 C 379.528 -204.477 380.792 -210.502 381.767 -216.434 C 382.74 -222.368 383.226 -228.39 383.226 -234.503 C 383.226 -240.615 382.837 -246.638 382.058 -252.572 C 381.281 -258.505 379.918 -264.528 377.971 -270.641 L 432.855 -307.857 L 409.499 -346.692 L 347.61 -321.881 C 338.659 -331.229 328.538 -339.051 317.248 -345.343 C 305.961 -351.636 293.505 -355.682 279.882 -357.479 L 271.71 -417.888 L 220.328 -417.888 L 212.154 -357.479 C 198.92 -354.962 186.561 -350.648 175.08 -344.533 C 163.597 -338.421 153.379 -330.87 144.428 -321.881 L 82.538 -346.692 L 59.183 -307.857 L 114.067 -270.641 C 112.509 -264.528 111.243 -258.505 110.271 -252.572 C 109.298 -246.638 108.812 -240.615 108.812 -234.503 C 108.812 -228.39 109.298 -222.368 110.271 -216.434 C 111.243 -210.502 112.509 -204.477 114.067 -198.365 L 59.183 -161.149 L 82.538 -122.314 L 144.428 -147.126 C 153.768 -138.497 164.18 -131.125 175.663 -125.012 C 187.146 -118.9 199.31 -114.403 212.154 -111.527 L 220.328 -51.118 Z" style=""></path></g>
</svg>