<svg width="24" height="24" viewBox="0 0 24 24" fill="none" xmlns="http://www.w3.org/2000/svg"><g clip-path="url(#sfg34ce33a8)"><path opacity=".5" d="M8 15l-3.633-4.36A1 1 0 0 1 5.135 9h14.996a1 1 0 0 1 .832 1.555L18 15M8 15l4.232-5.078a1 1 0 0 1 1.536 0L18 15M8 15h10" stroke="#7289F9"></path><path d="M.707 9.207l1.086 1.086a1 1 0 0 0 1.414 0l1.086-1.086a1 1 0 0 0 0-1.414L3.207 6.707a1 1 0 0 0-1.414 0L.707 7.793a1 1 0 0 0 0 1.414zm5 6l1.086 1.086a1 1 0 0 0 1.414 0l1.086-1.086a1 1 0 0 0 0-1.414l-1.086-1.086a1 1 0 0 0-1.414 0l-1.086 1.086a1 1 0 0 0 0 1.414zm10 0l1.086 1.086a1 1 0 0 0 1.414 0l1.086-1.086a1 1 0 0 0 0-1.414l-1.086-1.086a1 1 0 0 0-1.414 0l-1.086 1.086a1 1 0 0 0 0 1.414zm-5-6l1.086 1.086a1 1 0 0 0 1.414 0l1.086-1.086a1 1 0 0 0 0-1.414l-1.086-1.086a1 1 0 0 0-1.414 0l-1.086 1.086a1 1 0 0 0 0 1.414zm9 0l1.086 1.086a1 1 0 0 0 1.414 0l1.086-1.086a1 1 0 0 0 0-1.414l-1.086-1.086a1 1 0 0 0-1.414 0l-1.086 1.086a1 1 0 0 0 0 1.414z" fill="#fff" stroke="#FCA35E"></path></g><defs><clipPath id="sfg34ce33a8"><path fill="#fff" d="M0 0h24v24H0z"></path></clipPath></defs></svg>